<?xml version="1.0" standalone="no"?>
<!DOCTYPE svg PUBLIC "-//W3C//DTD SVG 20010904//EN"
 "http://www.w3.org/TR/2001/REC-SVG-20010904/DTD/svg10.dtd">
<svg version="1.0" xmlns="http://www.w3.org/2000/svg"
 width="515.000000pt" height="515.000000pt" viewBox="0 0 515.000000 515.000000"
 preserveAspectRatio="xMidYMid meet">
<metadata>
Created by potrace 1.11, written by Peter Selinger 2001-2013
</metadata>
<g transform="translate(0.000000,515.000000) scale(0.100000,-0.100000)"
fill="#000000" stroke="none">
<path d="M2283 5014 c-546 -66 -1050 -312 -1443 -704 -373 -372 -615 -850
-696 -1375 -26 -168 -27 -570 0 -735 80 -507 306 -968 654 -1331 369 -386 843
-640 1358 -729 579 -100 1190 12 1684 310 662 398 1097 1072 1186 1836 20 168
14 503 -10 659 -160 1008 -921 1816 -1913 2031 -247 53 -572 68 -820 38z m764
-686 c255 -93 413 -258 483 -504 18 -62 20 -101 20 -391 l0 -323 91 0 92 0 33
-36 34 -35 0 -946 0 -945 -39 -39 -39 -39 -1141 0 -1141 0 -38 34 -37 34 -3
939 c-2 690 1 945 9 966 23 54 52 67 155 67 l94 0 0 317 c0 351 5 388 65 518
83 182 243 319 445 383 96 31 85 30 480 28 l365 -2 72 -26z"/>
<path d="M2228 3986 c-102 -37 -172 -100 -217 -196 l-26 -55 -3 -312 -3 -313
606 0 606 0 -3 313 -3 312 -26 56 c-36 76 -86 129 -161 170 l-63 34 -335 2
c-259 2 -343 0 -372 -11z"/>
<path d="M2507 2620 c-79 -24 -137 -108 -137 -198 0 -67 20 -116 66 -157 l36
-34 -47 -218 c-26 -120 -50 -224 -52 -230 -4 -10 42 -13 211 -13 166 0 216 3
215 13 0 6 -22 111 -48 232 l-48 220 29 27 c139 130 44 369 -147 367 -27 0
-63 -5 -78 -9z"/>
</g>
</svg>
